<svg width="66" height="49" viewBox="0 0 66 49" fill="none" xmlns="http://www.w3.org/2000/svg">
<path d="M0 48.75V36.75C0 35.05 0.588 33.625 1.764 32.475C2.938 31.325 4.35 30.75 6 30.75H15.825C16.825 30.75 17.775 31 18.675 31.5C19.575 32 20.3 32.675 20.85 33.525C22.3 35.475 24.088 37 26.214 38.1C28.338 39.2 30.6 39.75 33 39.75C35.45 39.75 37.738 39.2 39.864 38.1C41.988 37 43.75 35.475 45.15 33.525C45.8 32.675 46.562 32 47.436 31.5C48.312 31 49.225 30.75 50.175 30.75H60C61.7 30.75 63.125 31.325 64.275 32.475C65.425 33.625 66 35.05 66 36.75V48.75H45V41.925C43.25 43.175 41.363 44.125 39.339 44.775C37.313 45.425 35.2 45.75 33 45.75C30.85 45.75 28.75 45.413 26.7 44.739C24.65 44.063 22.75 43.1 21 41.85V48.75H0ZM33 36.75C31.1 36.75 29.3 36.312 27.6 35.436C25.9 34.562 24.475 33.35 23.325 31.8C22.475 30.55 21.413 29.563 20.139 28.839C18.863 28.113 17.475 27.75 15.975 27.75C17.075 25.9 19.4 24.437 22.95 23.361C26.5 22.287 29.85 21.75 33 21.75C36.15 21.75 39.5 22.287 43.05 23.361C46.6 24.437 48.925 25.9 50.025 27.75C48.575 27.75 47.2 28.113 45.9 28.839C44.6 29.563 43.525 30.55 42.675 31.8C41.575 33.4 40.175 34.625 38.475 35.475C36.775 36.325 34.95 36.75 33 36.75ZM9 27.75C6.5 27.75 4.375 26.875 2.625 25.125C0.875 23.375 0 21.25 0 18.75C0 16.2 0.875 14.062 2.625 12.336C4.375 10.612 6.5 9.75 9 9.75C11.55 9.75 13.688 10.612 15.414 12.336C17.138 14.062 18 16.2 18 18.75C18 21.25 17.138 23.375 15.414 25.125C13.688 26.875 11.55 27.75 9 27.75ZM57 27.75C54.5 27.75 52.375 26.875 50.625 25.125C48.875 23.375 48 21.25 48 18.75C48 16.2 48.875 14.062 50.625 12.336C52.375 10.612 54.5 9.75 57 9.75C59.55 9.75 61.688 10.612 63.414 12.336C65.138 14.062 66 16.2 66 18.75C66 21.25 65.138 23.375 63.414 25.125C61.688 26.875 59.55 27.75 57 27.75ZM33 18.75C30.5 18.75 28.375 17.875 26.625 16.125C24.875 14.375 24 12.25 24 9.75C24 7.2 24.875 5.062 26.625 3.336C28.375 1.612 30.5 0.75 33 0.75C35.55 0.75 37.687 1.612 39.411 3.336C41.137 5.062 42 7.2 42 9.75C42 12.25 41.137 14.375 39.411 16.125C37.687 17.875 35.55 18.75 33 18.75Z" fill="#1C1B1F"/>
</svg>
