<svg width="20" height="24" viewBox="0 0 20 24" fill="none" xmlns="http://www.w3.org/2000/svg">
<path d="M10.4 12C11.06 12 11.6252 11.7648 12.0956 11.2944C12.5652 10.8248 12.8 10.26 12.8 9.6C12.8 8.94 12.5652 8.3748 12.0956 7.9044C11.6252 7.4348 11.06 7.2 10.4 7.2C9.74005 7.2 9.17525 7.4348 8.70565 7.9044C8.23525 8.3748 8.00005 8.94 8.00005 9.6C8.00005 10.26 8.23525 10.8248 8.70565 11.2944C9.17525 11.7648 9.74005 12 10.4 12ZM10.4 24C7.18005 21.26 4.77525 18.7148 3.18565 16.3644C1.59525 14.0148 0.800049 11.84 0.800049 9.84C0.800049 6.84 1.76525 4.45 3.69565 2.67C5.62525 0.89 7.86005 0 10.4 0C12.94 0 15.1748 0.89 17.1045 2.67C19.0348 4.45 20 6.84 20 9.84C20 11.84 19.2052 14.0148 17.6157 16.3644C16.0253 18.7148 13.62 21.26 10.4 24Z" fill="#EFEFEF"/>
</svg>
