<svg width="21" height="20" viewBox="0 0 21 20" fill="none" xmlns="http://www.w3.org/2000/svg">
<path d="M19.6334 20C17.2445 20 14.916 19.4674 12.6478 18.4022C10.3789 17.3378 8.36968 15.9304 6.62005 14.18C4.86968 12.4304 3.46227 10.4211 2.39783 8.15222C1.33264 5.88407 0.800049 3.55556 0.800049 1.16667C0.800049 0.833334 0.91116 0.555556 1.13338 0.333333C1.3556 0.111111 1.63338 0 1.96672 0H6.46672C6.72598 0 6.95746 0.0833332 7.16116 0.25C7.36486 0.416667 7.48523 0.62963 7.52227 0.888889L8.24449 4.77778C8.28153 5.03704 8.27709 5.27296 8.23116 5.48556C8.18449 5.69889 8.07783 5.88889 7.91116 6.05556L5.24449 8.77778C6.02227 10.1111 6.99449 11.3611 8.16116 12.5278C9.32783 13.6944 10.6149 14.7037 12.0223 15.5556L14.6334 12.9444C14.8 12.7778 15.0178 12.6526 15.2867 12.5689C15.5549 12.4859 15.8186 12.463 16.0778 12.5L19.9112 13.2778C20.1704 13.3333 20.3834 13.4581 20.55 13.6522C20.7167 13.847 20.8 14.0741 20.8 14.3333V18.8333C20.8 19.1667 20.6889 19.4444 20.4667 19.6667C20.2445 19.8889 19.9667 20 19.6334 20Z" fill="#EFEFEF"/>
</svg>
