<svg width="26" height="20" viewBox="0 0 26 20" fill="none" xmlns="http://www.w3.org/2000/svg">
<path d="M3.30005 20C2.61255 20 2.02422 19.7554 1.53505 19.2663C1.04505 18.7763 0.800049 18.1875 0.800049 17.5V2.5C0.800049 1.8125 1.04505 1.22417 1.53505 0.735C2.02422 0.245 2.61255 0 3.30005 0H23.3C23.9875 0 24.5763 0.245 25.0663 0.735C25.5555 1.22417 25.8 1.8125 25.8 2.5V17.5C25.8 18.1875 25.5555 18.7763 25.0663 19.2663C24.5763 19.7554 23.9875 20 23.3 20H3.30005ZM13.3 11.25L23.3 5V2.5L13.3 8.75L3.30005 2.5V5L13.3 11.25Z" fill="#EFEFEF"/>
</svg>
