<svg width="163" height="100" viewBox="0 0 163 100" fill="none" xmlns="http://www.w3.org/2000/svg">
<path fill-rule="evenodd" clip-rule="evenodd" d="M61.2004 43.5666V40.4558H48.2668V43.5666H52.7694V55.8457H48.2668V58.9558H61.2004V55.8457H56.289V43.5666H61.2004Z" fill="white"/>
<path fill-rule="evenodd" clip-rule="evenodd" d="M82.6878 43.6894H77.5315V48.7647C77.5315 48.7647 80.3138 48.6831 82.6062 48.6831C84.898 48.6831 85.4707 48.1919 85.4707 45.8995C85.4707 43.2805 82.6878 43.6894 82.6878 43.6894Z" fill="white"/>
<path fill-rule="evenodd" clip-rule="evenodd" d="M89.1547 54.4946V58.7516H85.4712V54.7402C85.4712 54.7402 85.4712 51.6301 83.3427 51.6301C81.2149 51.6301 77.5313 51.7117 77.5313 51.7117V58.8332H73.9288V40.4972H84.5706C84.5706 40.4972 89.1547 40.2516 89.1547 45.2446C89.1547 50.2383 86.3718 50.4839 86.3718 50.4839C86.3718 50.4839 89.1547 50.6472 89.1547 54.4946ZM67.7896 63.4174H94.5566V36.1592H67.7896V63.4174Z" fill="white"/>
<path fill-rule="evenodd" clip-rule="evenodd" d="M99.4685 40.4971V43.5262H102.006V55.8863H99.4685V58.9154H115.103V52.9395H111.993V55.8863H105.362V50.8933H110.274V47.8642H105.362V43.5262H111.747V46.4724H115.103V40.4971H99.4685Z" fill="white"/>
<path fill-rule="evenodd" clip-rule="evenodd" d="M136.386 43.6077H130.82V55.8862H136.632C139.415 55.8862 139.496 52.2843 139.496 52.2843V47.5368C139.496 43.3615 136.386 43.6077 136.386 43.6077Z" fill="white"/>
<path fill-rule="evenodd" clip-rule="evenodd" d="M136.795 59.0789C130.083 59.0789 127.054 59.1606 127.054 59.1606V40.5789H134.994C134.994 40.5789 143.18 39.6789 143.18 47.046V52.203C143.18 52.203 143.507 59.0789 136.795 59.0789ZM121.078 63.4169H147.846V36.1587H121.078V63.4169Z" fill="white"/>
<path fill-rule="evenodd" clip-rule="evenodd" d="M35.5385 58.915H30.9543L28.0075 45.572L24.8151 58.9967H20.3132L16.5474 40.5789H20.2309L22.7689 54.577L26.043 40.5789L30.0537 40.6612L33.3284 54.822L35.7841 40.5789H39.3037L35.5385 58.915ZM14.2556 63.4169H41.0227V36.1587H14.2556V63.4169Z" fill="white"/>
<mask id="mask0_43_812" style="mask-type:luminance" maskUnits="userSpaceOnUse" x="0" y="0" width="163" height="100">
<path fill-rule="evenodd" clip-rule="evenodd" d="M0 99.4429H162.101V0.132812H0V99.4429Z" fill="white"/>
</mask>
<g mask="url(#mask0_43_812)">
</g>
</svg>
