<svg width="164" height="101" viewBox="0 0 164 101" fill="none" xmlns="http://www.w3.org/2000/svg">
<path fill-rule="evenodd" clip-rule="evenodd" d="M74.3009 42.5869C74.3009 40.8092 74.5933 39.5315 75.1786 38.755C75.764 37.9792 76.7086 37.5907 78.0143 37.5907C79.1627 37.5907 79.9608 37.9448 80.4118 38.6538C80.8614 39.3627 81.0863 40.4378 81.0863 41.878V51.7347H85.8799V41.0003C85.8799 39.92 85.7844 38.9359 85.5933 38.0461C85.4016 37.1576 85.0697 36.4041 84.5971 35.7843C84.1251 35.1659 83.4774 34.6824 82.6563 34.3334C81.834 33.9843 80.7825 33.8098 79.4997 33.8098C78.4869 33.8098 77.4965 34.041 76.529 34.5015C75.5614 34.9633 74.7735 35.7003 74.1659 36.713H74.0653V34.2824H69.5079V51.7347H74.3009V42.5869Z" fill="white"/>
<path fill-rule="evenodd" clip-rule="evenodd" d="M91.5002 39.987C91.6231 39.5603 91.8378 39.1545 92.1416 38.7717C92.4454 38.3896 92.8505 38.0692 93.3569 37.81C93.8632 37.5514 94.4983 37.4214 95.2645 37.4214C96.434 37.4214 97.3059 37.7367 97.8804 38.3673C98.4543 38.9972 98.8531 39.9195 99.0785 41.1348H91.2804C91.3021 40.7972 91.3766 40.4151 91.5002 39.987ZM103.568 46.3335H99.3486C99.1913 46.8743 98.7632 47.3864 98.0658 47.8692C97.3683 48.3539 96.5352 48.5953 95.5683 48.5953C94.218 48.5953 93.1824 48.2469 92.4626 47.5488C91.7416 46.852 91.3486 45.7259 91.2804 44.173H103.872C103.961 42.8227 103.85 41.5291 103.535 40.2909C103.219 39.0539 102.708 37.9507 101.998 36.9826C101.29 36.0157 100.384 35.2444 99.2811 34.6705C98.1779 34.0966 96.8843 33.8093 95.3989 33.8093C94.0709 33.8093 92.862 34.0456 91.7703 34.5189C90.6785 34.9915 89.739 35.638 88.9518 36.4596C88.1632 37.2813 87.5556 38.2545 87.1289 39.3794C86.7008 40.5049 86.4868 41.7202 86.4868 43.0259C86.4868 44.3762 86.6951 45.6138 87.111 46.7386C87.5282 47.8641 88.118 48.8316 88.8843 49.6418C89.6486 50.452 90.5836 51.0768 91.6862 51.5151C92.7881 51.9545 94.0263 52.1737 95.3989 52.1737C97.3792 52.1737 99.0671 51.724 100.463 50.8233C101.858 49.9233 102.893 48.4265 103.568 46.3335Z" fill="white"/>
<path fill-rule="evenodd" clip-rule="evenodd" d="M129.966 34.2825H125.038L121.831 46.0978H121.763L118.792 34.2825H114.134L111.231 46.1315H111.163L107.956 34.2825H102.892L108.429 51.7347H113.392L116.362 40.0213H116.429L119.535 51.7347H124.464L129.966 34.2825Z" fill="white"/>
<path fill-rule="evenodd" clip-rule="evenodd" d="M129.831 41.3544C130.146 41.8837 130.562 42.3226 131.08 42.671C131.598 43.0206 132.189 43.3015 132.852 43.5149C133.516 43.7296 134.197 43.9149 134.895 44.0722C136.605 44.4321 137.938 44.7926 138.895 45.1525C139.851 45.5124 140.329 46.0525 140.329 46.7722C140.329 47.2003 140.229 47.555 140.026 47.8359C139.824 48.1175 139.57 48.3423 139.266 48.5111C138.963 48.6799 138.626 48.8041 138.254 48.8824C137.883 48.9614 137.528 49.0003 137.191 49.0003C136.718 49.0003 136.262 48.9448 135.823 48.8321C135.384 48.7194 134.996 48.5448 134.658 48.3085C134.321 48.0722 134.045 47.7684 133.831 47.3971C133.617 47.0257 133.511 46.5818 133.511 46.064H128.954C128.998 47.234 129.263 48.2073 129.747 48.9837C130.231 49.7601 130.849 50.3843 131.603 50.8576C132.357 51.3302 133.218 51.6678 134.186 51.8697C135.153 52.0729 136.143 52.1741 137.157 52.1741C138.147 52.1741 139.12 52.078 140.077 51.8869C141.033 51.6958 141.882 51.3633 142.625 50.8913C143.368 50.4181 143.97 49.7939 144.431 49.0175C144.892 48.241 145.124 47.2792 145.124 46.1315C145.124 45.3213 144.966 44.6404 144.651 44.0888C144.335 43.5378 143.919 43.0761 143.402 42.7047C142.884 42.3334 142.292 42.0359 141.629 41.8098C140.965 41.5856 140.284 41.3939 139.587 41.2366C138.912 41.0792 138.248 40.9327 137.595 40.7977C136.943 40.6627 136.364 40.5105 135.857 40.3417C135.35 40.1735 134.94 39.9538 134.624 39.6837C134.309 39.4136 134.152 39.0646 134.152 38.6372C134.152 38.2773 134.242 37.9907 134.422 37.7761C134.602 37.5627 134.822 37.3996 135.08 37.2869C135.339 37.1748 135.626 37.1009 135.942 37.0671C136.256 37.0334 136.549 37.0168 136.819 37.0168C137.674 37.0168 138.417 37.1805 139.047 37.506C139.677 37.8327 140.026 38.4576 140.094 39.3799H144.651C144.561 38.2996 144.284 37.4047 143.824 36.6958C143.362 35.9869 142.782 35.4187 142.085 34.9913C141.387 34.564 140.594 34.2601 139.705 34.0799C138.815 33.8996 137.899 33.8098 136.954 33.8098C136.008 33.8098 135.085 33.8945 134.186 34.0627C133.285 34.2315 132.475 34.5245 131.756 34.9404C131.035 35.3576 130.456 35.9257 130.017 36.6455C129.578 37.3659 129.359 38.2888 129.359 39.4136C129.359 40.1792 129.516 40.8257 129.831 41.3544Z" fill="white"/>
<mask id="mask0_43_902" style="mask-type:luminance" maskUnits="userSpaceOnUse" x="0" y="0" width="164" height="101">
<path fill-rule="evenodd" clip-rule="evenodd" d="M0 100.299H163.134V0.356445H0V100.299Z" fill="white"/>
</mask>
<g mask="url(#mask0_43_902)">
<path fill-rule="evenodd" clip-rule="evenodd" d="M66.3191 70.2202H68.7267V67.8584H66.3191V70.2202Z" fill="white"/>
<path fill-rule="evenodd" clip-rule="evenodd" d="M77.2537 67.4008C76.7913 67.8798 76.1327 68.1193 75.2766 68.1193C74.7218 68.1193 74.2518 67.9932 73.8658 67.741C73.4785 67.4894 73.1728 67.1664 72.9467 66.7715C72.7199 66.3773 72.5556 65.9359 72.4556 65.4492C72.3543 64.962 72.304 64.4836 72.304 64.0136C72.304 63.5263 72.3543 63.0352 72.4556 62.5397C72.5556 62.0441 72.7282 61.5913 72.9709 61.1792C73.2142 60.7677 73.5295 60.4327 73.9161 60.1715C74.3021 59.9117 74.7804 59.7811 75.3524 59.7811C76.8798 59.7811 77.7613 60.5289 77.997 62.0231H81.4983C81.4479 61.1836 81.2467 60.4575 80.8938 59.8448C80.5409 59.2314 80.083 58.7193 79.5212 58.3078C78.9581 57.8964 78.3206 57.59 77.6065 57.3881C76.8932 57.1868 76.1499 57.0862 75.3772 57.0862C74.3199 57.0862 73.3785 57.2626 72.5556 57.6155C71.7333 57.9677 71.0358 58.4588 70.4651 59.0887C69.8938 59.718 69.462 60.4658 69.1683 61.3308C68.8741 62.1957 68.7269 63.1314 68.7269 64.139C68.7269 65.1129 68.8862 66.0072 69.2053 66.8219C69.5244 67.6365 69.969 68.3378 70.5409 68.9257C71.111 69.5129 71.804 69.9696 72.6186 70.2983C73.4333 70.625 74.3276 70.7887 75.3015 70.7887C77.0308 70.7887 78.4499 70.3352 79.5581 69.4289C80.6664 68.5225 81.3384 67.204 81.5734 65.4747H78.1225C78.0053 66.2798 77.7155 66.9225 77.2537 67.4008Z" fill="white"/>
<path fill-rule="evenodd" clip-rule="evenodd" d="M91.2963 65.4871C91.1956 65.982 91.023 66.4278 90.7797 66.8221C90.5364 67.217 90.209 67.5316 89.7975 67.7667C89.3854 68.0017 88.8778 68.1195 88.274 68.1195C87.6695 68.1195 87.1657 68.0017 86.7625 67.7667C86.3593 67.5316 86.0351 67.217 85.7918 66.8221C85.5491 66.4278 85.3765 65.982 85.2765 65.4871C85.1752 64.9922 85.1256 64.4839 85.1256 63.9629C85.1256 63.4425 85.1752 62.9297 85.2765 62.4266C85.3765 61.9221 85.5491 61.4775 85.7918 61.0915C86.0351 60.7049 86.3593 60.3902 86.7625 60.1463C87.1657 59.903 87.6695 59.7813 88.274 59.7813C88.8778 59.7813 89.3854 59.903 89.7975 60.1463C90.209 60.3902 90.5364 60.7049 90.7797 61.0915C91.023 61.4775 91.1956 61.9221 91.2963 62.4266C91.3975 62.9297 91.4472 63.4425 91.4472 63.9629C91.4472 64.4839 91.3975 64.9922 91.2963 65.4871ZM93.1861 58.9629C92.5975 58.3667 91.8886 57.9055 91.0574 57.5775C90.2256 57.2501 89.2975 57.0864 88.274 57.0864C87.2491 57.0864 86.3249 57.2501 85.502 57.5775C84.6797 57.9055 83.9746 58.3667 83.3867 58.9629C82.7982 59.5584 82.3453 60.2813 82.0262 61.1291C81.7071 61.9769 81.5479 62.9221 81.5479 63.9629C81.5479 65.0043 81.7071 65.9444 82.0262 66.7845C82.3453 67.624 82.7982 68.3418 83.3867 68.938C83.9746 69.5342 84.6797 69.9922 85.502 70.3106C86.3249 70.6297 87.2491 70.789 88.274 70.789C89.2975 70.789 90.2256 70.6297 91.0574 70.3106C91.8886 69.9922 92.5975 69.5342 93.1861 68.938C93.7733 68.3418 94.2275 67.624 94.5466 66.7845C94.865 65.9444 95.0249 65.0043 95.0249 63.9629C95.0249 62.9221 94.865 61.9769 94.5466 61.1291C94.2275 60.2813 93.7733 59.5584 93.1861 58.9629Z" fill="white"/>
<path fill-rule="evenodd" clip-rule="evenodd" d="M114.371 58.1441C113.95 57.7747 113.446 57.5059 112.859 57.3378C112.271 57.1709 111.633 57.0862 110.944 57.0862C110.037 57.0862 109.253 57.3047 108.59 57.741C107.925 58.1779 107.402 58.6824 107.015 59.2524C106.662 58.4467 106.146 57.8843 105.465 57.5645C104.785 57.2461 104.034 57.0862 103.211 57.0862C102.355 57.0862 101.594 57.2715 100.932 57.6403C100.268 58.0097 99.7011 58.5301 99.231 59.2021H99.1807V57.439H95.8055V70.4613H99.3826V62.9053C99.3826 62.2671 99.4743 61.7505 99.659 61.3556C99.8438 60.9613 100.067 60.6588 100.327 60.4486C100.587 60.239 100.856 60.0957 101.134 60.0206C101.41 59.9454 101.633 59.9078 101.801 59.9078C102.371 59.9078 102.804 60.004 103.098 60.1976C103.392 60.39 103.602 60.6467 103.728 60.9658C103.853 61.2849 103.925 61.6333 103.942 62.0104C103.958 62.3887 103.967 62.7709 103.967 63.1569V70.4613H107.544V63.2072C107.544 62.804 107.572 62.4053 107.632 62.0104C107.691 61.6161 107.808 61.2633 107.985 60.9531C108.161 60.6422 108.404 60.39 108.715 60.1976C109.025 60.004 109.434 59.9078 109.937 59.9078C110.441 59.9078 110.839 59.9913 111.134 60.1594C111.427 60.3276 111.65 60.5543 111.801 60.839C111.952 61.125 112.044 61.4607 112.078 61.8467C112.111 62.2333 112.128 62.6448 112.128 63.0817V70.4613H115.706V61.7461C115.706 60.9066 115.587 60.1887 115.353 59.5919C115.117 58.9964 114.79 58.5136 114.371 58.1441Z" fill="white"/>
<path fill-rule="evenodd" clip-rule="evenodd" d="M116.636 70.461H119.017V68.126H116.636V70.461Z" fill="white"/>
<path fill-rule="evenodd" clip-rule="evenodd" d="M128.269 65.4235C128.269 65.6248 128.248 65.8942 128.206 66.2305C128.164 66.5662 128.05 66.8968 127.866 67.2248C127.68 67.5522 127.395 67.8337 127.009 68.0681C126.623 68.3038 126.078 68.421 125.373 68.421C125.086 68.421 124.809 68.3955 124.541 68.3458C124.273 68.2955 124.037 68.207 123.836 68.0815C123.634 67.9554 123.474 67.7834 123.357 67.5649C123.239 67.3471 123.18 67.0783 123.18 66.7592C123.18 66.4229 123.239 66.1458 123.357 65.928C123.474 65.7095 123.63 65.5286 123.823 65.3859C124.016 65.2439 124.243 65.1305 124.503 65.0458C124.763 64.9617 125.028 64.8949 125.297 64.8445C125.582 64.7942 125.867 64.7522 126.153 64.7191C126.438 64.6853 126.711 64.6426 126.971 64.5923C127.232 64.542 127.476 64.4796 127.701 64.4031C127.929 64.328 128.118 64.2235 128.269 64.0885V65.4235ZM131.846 67.5649V60.7891C131.846 60 131.67 59.3656 131.316 58.8872C130.964 58.4082 130.511 58.035 129.957 57.7662C129.402 57.498 128.788 57.3171 128.118 57.2248C127.446 57.1324 126.783 57.0859 126.127 57.0859C125.405 57.0859 124.688 57.1573 123.974 57.3C123.26 57.4433 122.618 57.6828 122.046 58.0178C121.476 58.3541 121.006 58.7993 120.637 59.3535C120.267 59.9076 120.057 60.6044 120.006 61.4439H123.584C123.65 60.7388 123.886 60.235 124.288 59.9324C124.692 59.6299 125.246 59.4796 125.951 59.4796C126.27 59.4796 126.569 59.5006 126.846 59.5426C127.123 59.584 127.366 59.6681 127.576 59.7936C127.786 59.9197 127.954 60.0961 128.08 60.3229C128.206 60.5496 128.269 60.856 128.269 61.2426C128.285 61.6121 128.176 61.8936 127.941 62.0866C127.706 62.2789 127.387 62.4267 126.984 62.5273C126.581 62.628 126.119 62.7031 125.599 62.7541C125.078 62.8044 124.549 62.8713 124.011 62.9554C123.474 63.0394 122.941 63.1528 122.413 63.2949C121.883 63.4388 121.413 63.6522 121.002 63.9375C120.59 64.2235 120.254 64.605 119.994 65.084C119.734 65.5624 119.604 66.1713 119.604 66.9101C119.604 67.5821 119.717 68.1617 119.944 68.6477C120.17 69.135 120.485 69.5382 120.888 69.8573C121.292 70.1764 121.761 70.4114 122.299 70.5624C122.836 70.714 123.415 70.7891 124.037 70.7891C124.843 70.7891 125.632 70.6713 126.404 70.4363C127.177 70.2019 127.849 69.7904 128.42 69.2025C128.436 69.4203 128.466 69.6343 128.508 69.8439C128.55 70.0547 128.604 70.2598 128.672 70.4611H132.299C132.131 70.1929 132.013 69.7904 131.946 69.2528C131.88 68.7159 131.846 68.1522 131.846 67.5649Z" fill="white"/>
<path fill-rule="evenodd" clip-rule="evenodd" d="M141.62 57.4387V64.2655C141.62 65.5922 141.401 66.5451 140.965 67.1241C140.527 67.7037 139.822 67.9929 138.848 67.9929C137.993 67.9929 137.396 67.7285 137.06 67.1992C136.724 66.6706 136.556 65.8687 136.556 64.7941V57.4387H132.98V65.4489C132.98 66.2553 133.051 66.9897 133.194 67.6527C133.336 68.3164 133.584 68.8788 133.936 69.3413C134.29 69.8024 134.772 70.1597 135.385 70.4113C135.998 70.6629 136.783 70.789 137.74 70.789C138.496 70.789 139.235 70.6209 139.957 70.2852C140.678 69.9502 141.267 69.4037 141.72 68.6483H141.796V70.461H145.196V57.4387H141.62Z" fill="white"/>
<path fill-rule="evenodd" clip-rule="evenodd" d="M41.3081 29.4319H36.3585C35.689 29.4319 35.1406 29.9797 35.1406 30.6491V35.9586C35.1406 36.6281 35.689 37.1758 36.3585 37.1758H41.3081C41.9782 37.1758 42.5253 36.6281 42.5253 35.9586V30.6491C42.5253 29.9797 41.9782 29.4319 41.3081 29.4319Z" fill="white"/>
<path fill-rule="evenodd" clip-rule="evenodd" d="M41.3081 63.4797H36.3585C35.689 63.4797 35.1406 64.0275 35.1406 64.6969V70.0065C35.1406 70.6759 35.689 71.2237 36.3585 71.2237H41.3081C41.9782 71.2237 42.5253 70.6759 42.5253 70.0065V64.6969C42.5253 64.0275 41.9782 63.4797 41.3081 63.4797Z" fill="white"/>
<path fill-rule="evenodd" clip-rule="evenodd" d="M25.6812 54.2005V49.2502C25.6812 48.5807 25.1334 48.033 24.464 48.033H19.1545C18.485 48.033 17.9373 48.5807 17.9373 49.2502V54.2005C17.9373 54.8699 18.485 55.4177 19.1545 55.4177H24.464C25.1334 55.4177 25.6812 54.8699 25.6812 54.2005Z" fill="white"/>
<path fill-rule="evenodd" clip-rule="evenodd" d="M58.5117 48.033H53.2028C52.5328 48.033 51.985 48.5807 51.985 49.2502V54.2005C51.985 54.8699 52.5328 55.4177 53.2028 55.4177H58.5117C59.1818 55.4177 59.7289 54.8699 59.7289 54.2005V49.2502C59.7289 48.5807 59.1818 48.033 58.5117 48.033Z" fill="white"/>
<path fill-rule="evenodd" clip-rule="evenodd" d="M27.783 58.5764C27.3098 58.1031 26.5346 58.1031 26.0613 58.5764L22.3072 62.3305C21.834 62.8044 21.834 63.5789 22.3072 64.0522L25.8072 67.5528C26.2811 68.0261 27.0556 68.0261 27.5295 67.5528L31.2836 63.798C31.7569 63.3248 31.7569 62.5496 31.2836 62.0764L27.783 58.5764Z" fill="white"/>
<path fill-rule="evenodd" clip-rule="evenodd" d="M49.8831 43.4767C50.3564 43.9506 51.1315 43.9506 51.6048 43.4767L55.3589 39.7226C55.8328 39.2493 55.8328 38.4742 55.3589 38.0009L51.8589 34.5009C51.385 34.0277 50.6105 34.0277 50.1366 34.5009L46.3831 38.2551C45.9099 38.7283 45.9099 39.5028 46.3831 39.9767L49.8831 43.4767Z" fill="white"/>
<path fill-rule="evenodd" clip-rule="evenodd" d="M51.6049 58.5764C51.1317 58.1031 50.3565 58.1031 49.8833 58.5764L46.3833 62.0764C45.91 62.5496 45.91 63.3248 46.3833 63.798L50.1368 67.5528C50.61 68.0261 51.3852 68.0261 51.8584 67.5528L55.3591 64.0522C55.8329 63.5789 55.8329 62.8044 55.3591 62.3305L51.6049 58.5764Z" fill="white"/>
<path fill-rule="evenodd" clip-rule="evenodd" d="M27.5292 34.5007C27.056 34.0274 26.2808 34.0274 25.8076 34.5007L22.3076 38.0013C21.8343 38.4746 21.8343 39.2491 22.3076 39.7223L26.0611 43.4765C26.5343 43.9504 27.3095 43.9504 27.7827 43.4765L31.284 39.9765C31.7573 39.5032 31.7573 38.7281 31.284 38.2548L27.5292 34.5007Z" fill="white"/>
</g>
</svg>
