<svg width="164" height="101" viewBox="0 0 164 101" fill="none" xmlns="http://www.w3.org/2000/svg">
<path fill-rule="evenodd" clip-rule="evenodd" d="M63.3637 45.2528C63.9395 44.7567 64.3688 44.0917 64.5727 43.3586C64.8 42.5477 64.7816 41.6821 64.6051 40.8637C64.4293 40.0681 63.9975 39.3337 63.3873 38.7949C62.7478 38.2191 61.9631 37.8331 61.1612 37.5356C60.2287 37.1974 59.2962 36.856 58.3625 36.5172C57.9185 36.3471 57.4682 36.1611 57.1026 35.8497C56.823 35.6153 56.6242 35.286 56.5625 34.9255C56.4924 34.5191 56.5153 34.0796 56.7172 33.7114C56.8707 33.4204 57.1198 33.1904 57.4051 33.0293C57.8414 32.7802 58.3434 32.6726 58.8402 32.6305C59.879 32.5548 60.9344 32.7223 61.8949 33.1242C62.6236 33.4197 63.2899 33.8471 63.9147 34.3204C63.916 33.3942 63.916 32.4681 63.9147 31.5414C62.9153 30.8911 61.7593 30.5019 60.5809 30.3407C59.5249 30.2019 58.4376 30.2095 57.4013 30.4745C56.5803 30.6828 55.7879 31.0554 55.1606 31.6325C54.4701 32.2573 54.0306 33.1446 53.9389 34.0707C53.8478 35.0573 53.9956 36.1006 54.5344 36.949C54.9332 37.5802 55.5242 38.0681 56.1707 38.4312C57.0217 38.9184 57.9657 39.2 58.8809 39.5388C59.6338 39.8191 60.4134 40.0503 61.1102 40.4611C61.509 40.6955 61.8714 41.0369 62.0198 41.486C62.1663 41.9382 62.1695 42.4465 61.9943 42.8911C61.837 43.2981 61.5071 43.6178 61.1236 43.8165C60.4485 44.1656 59.6682 44.2401 58.9185 44.2286C57.144 44.2076 55.4198 43.5063 54.0472 42.3987C54.044 43.3407 54.0478 44.2821 54.0453 45.2235C55.1892 46.0089 56.5606 46.4025 57.9281 46.556C59.0236 46.6726 60.144 46.6337 61.2121 46.3509C61.9943 46.1407 62.7497 45.7879 63.3637 45.2528Z" fill="white"/>
<path fill-rule="evenodd" clip-rule="evenodd" d="M127.288 45.53C127.911 45.0994 128.418 44.4956 128.709 43.7949C129.056 42.9746 129.089 42.0554 128.961 41.1841C128.841 40.3854 128.493 39.6166 127.932 39.0319C127.324 38.3841 126.527 37.9523 125.711 37.6242C124.795 37.279 123.872 36.9535 122.953 36.6147C122.393 36.4109 121.811 36.2083 121.358 35.8077C120.773 35.2968 120.664 34.372 121.011 33.6975C121.344 33.079 122.049 32.7867 122.71 32.6726C123.946 32.4803 125.233 32.6835 126.372 33.193C127.031 33.4835 127.635 33.879 128.209 34.3096C128.214 33.3854 128.209 32.4605 128.211 31.5363C126.88 30.6676 125.279 30.2612 123.698 30.2472C122.428 30.2172 121.118 30.4777 120.038 31.1695C119.363 31.6026 118.803 32.2312 118.502 32.979C118.254 33.5758 118.174 34.2332 118.213 34.8752C118.246 35.5828 118.426 36.2937 118.803 36.9C119.18 37.5134 119.74 37.9956 120.356 38.3593C121.025 38.7605 121.762 39.0255 122.495 39.2847C123.251 39.5663 124.022 39.8109 124.765 40.1281C125.219 40.3338 125.682 40.5644 126.012 40.9504C126.388 41.3854 126.481 42.0039 126.381 42.5561C126.3 43.0274 126 43.4459 125.596 43.6988C125.076 44.0338 124.452 44.1574 123.844 44.2045C123.244 44.2389 122.64 44.214 122.049 44.1064C120.684 43.8726 119.406 43.2453 118.331 42.3822C118.326 43.3236 118.332 44.265 118.328 45.2064C119.171 45.7949 120.155 46.1542 121.154 46.3739C122.357 46.6274 123.609 46.6879 124.825 46.4879C125.697 46.3395 126.558 46.0427 127.288 45.53Z" fill="white"/>
<path fill-rule="evenodd" clip-rule="evenodd" d="M144.436 39.4391C143.929 38.7264 143.185 38.2187 142.402 37.8506C141.547 37.4614 140.647 37.185 139.77 36.8512C139.022 36.5588 138.208 36.362 137.573 35.8461C136.989 35.378 136.845 34.5098 137.115 33.8346C137.257 33.485 137.535 33.206 137.861 33.0219C138.309 32.7659 138.826 32.6557 139.338 32.6162C140.345 32.5487 141.368 32.7111 142.303 33.0907C143.049 33.3907 143.734 33.8206 144.37 34.3073C144.37 33.4136 144.37 32.5194 144.37 31.6251C144.376 31.5639 144.356 31.5047 144.298 31.4805C142.911 30.6092 141.253 30.2206 139.624 30.2474C138.826 30.2436 138.026 30.376 137.275 30.6442C136.44 30.9467 135.66 31.4499 135.129 32.1697C134.656 32.7977 134.407 33.5773 134.378 34.3601C134.348 35.2009 134.491 36.069 134.917 36.8053C135.308 37.4913 135.929 38.0194 136.609 38.4079C137.456 38.8983 138.399 39.1792 139.312 39.5181C140.08 39.8028 140.876 40.0385 141.585 40.4595C141.973 40.6888 142.323 41.02 142.474 41.455C142.629 41.9149 142.631 42.4334 142.454 42.8881C142.303 43.2716 141.997 43.576 141.642 43.7754C140.957 44.1512 140.154 44.2302 139.385 44.2168C137.606 44.1996 135.877 43.4939 134.501 42.3824C134.508 43.3264 134.484 44.2729 134.513 45.2155C135.268 45.7461 136.146 46.0818 137.036 46.3079C138.004 46.5448 139.006 46.6429 140.001 46.5945C140.893 46.5493 141.787 46.3773 142.605 46.0111C143.368 45.6729 144.063 45.1448 144.529 44.4455C144.993 43.7544 145.212 42.9143 145.196 42.0862C145.206 41.1576 144.988 40.1996 144.436 39.4391Z" fill="white"/>
<path fill-rule="evenodd" clip-rule="evenodd" d="M95.3857 46.6213C95.3876 41.2493 95.3869 35.878 95.3857 30.5066C94.5226 30.5072 93.6589 30.5072 92.7965 30.5072C92.7927 33.8767 92.7984 37.2467 92.7933 40.6168C89.171 37.1665 85.5557 33.7092 81.936 30.2576C81.9373 35.6251 81.9341 40.9926 81.9373 46.3595C82.799 46.3614 83.6608 46.3563 84.5226 46.362C84.5341 42.9359 84.5213 39.5092 84.5296 36.0837C85.7162 37.2155 86.8838 38.369 88.0646 39.5085C90.5035 41.8799 92.9468 44.248 95.3857 46.6213Z" fill="white"/>
<path fill-rule="evenodd" clip-rule="evenodd" d="M26.6518 42.2255C26.5563 42.7663 26.2333 43.2625 25.7696 43.5599C25.2257 43.9166 24.5588 44.0211 23.9187 44.0281C22.7919 44.0275 21.6652 44.0287 20.5378 44.0268C20.5378 42.4848 20.5384 40.9421 20.5378 39.4001C21.6645 39.3982 22.7913 39.4007 23.918 39.3988C24.3633 39.3918 24.813 39.4472 25.2352 39.5937C25.6977 39.751 26.1231 40.0485 26.3792 40.4714C26.697 40.9912 26.7594 41.6345 26.6518 42.2255ZM22.8824 32.8389C23.4333 32.8402 23.99 32.8319 24.5333 32.944C25.0142 33.0421 25.4989 33.2466 25.8174 33.6332C26.1792 34.065 26.269 34.658 26.2302 35.2039C26.1989 35.7007 26.0104 36.2052 25.6289 36.5396C25.111 36.995 24.397 37.1262 23.7282 37.1587C22.6665 37.1676 21.6047 37.1548 20.5435 37.165C20.5314 35.7236 20.5416 34.2816 20.5378 32.8396C21.32 32.8383 22.1009 32.8396 22.8824 32.8389ZM29.0372 40.3096C28.6977 39.4918 28.0709 38.7931 27.2811 38.388C27.1321 38.3058 26.9652 38.2599 26.8225 38.1663C27.6881 37.8275 28.3321 37.0517 28.6142 36.1784C28.8798 35.365 28.8786 34.4765 28.69 33.6466C28.5168 32.9077 28.1149 32.2217 27.5365 31.7281C26.8276 31.1122 25.9149 30.7854 24.9996 30.6313C24.0359 30.4631 23.055 30.516 22.0811 30.5071C20.6951 30.5071 19.3104 30.5071 17.9244 30.5077C17.9231 35.7912 17.9231 41.0752 17.9244 46.3593C19.7645 46.3599 21.6053 46.3593 23.4454 46.3599C24.2824 46.3727 25.1282 46.3447 25.9442 46.1389C26.8913 45.9084 27.8098 45.4345 28.4295 44.665C28.9792 43.9937 29.2607 43.1351 29.3206 42.2771C29.3792 41.6109 29.3015 40.9268 29.0372 40.3096Z" fill="white"/>
<path fill-rule="evenodd" clip-rule="evenodd" d="M44.4464 46.0234C45.4897 45.561 46.377 44.7521 46.9178 43.7451C47.5445 42.5947 47.7662 41.2622 47.7452 39.9635C47.7452 36.8113 47.7452 33.6591 47.7445 30.5075C46.8496 30.5068 45.9553 30.5068 45.0611 30.5075C45.0585 33.5349 45.0604 36.5623 45.0598 39.589C45.0687 40.3731 45.0057 41.168 44.7636 41.9177C44.5579 42.5482 44.2025 43.1508 43.663 43.5514C43.0203 44.0419 42.1891 44.21 41.3948 44.2056C40.6133 44.2068 39.8018 44.0355 39.1668 43.5584C38.5235 43.0814 38.1401 42.333 37.9573 41.5673C37.719 40.6279 37.7592 39.6514 37.7573 38.6909C37.7573 35.9635 37.7579 33.2349 37.7573 30.5068C36.8623 30.5068 35.9674 30.5068 35.0732 30.5075C35.0706 33.6431 35.0732 36.7782 35.0719 39.9138C35.0617 40.8049 35.1566 41.703 35.4146 42.5572C35.6439 43.3056 36.0031 44.0196 36.5101 44.6177C36.935 45.1272 37.4662 45.5457 38.0522 45.8578C38.8502 46.2852 39.7452 46.5081 40.6439 46.5852C41.9292 46.6884 43.2598 46.5527 44.4464 46.0234Z" fill="white"/>
<path fill-rule="evenodd" clip-rule="evenodd" d="M71.6229 30.5046C71.6133 35.7894 71.6203 41.0747 71.6197 46.3601C72.5159 46.355 73.4127 46.369 74.3089 46.353C74.2968 41.0715 74.3089 35.7887 74.3031 30.5072C73.4095 30.5053 72.5159 30.5104 71.6229 30.5046Z" fill="white"/>
<path fill-rule="evenodd" clip-rule="evenodd" d="M112.109 43.945C109.794 43.9456 107.478 43.9456 105.163 43.945C105.161 42.3125 105.161 40.6794 105.163 39.0462C107.239 39.0456 109.315 39.0462 111.391 39.0462C111.393 38.2603 111.393 37.4755 111.391 36.6902C109.315 36.6896 107.239 36.6915 105.163 36.6896C105.161 35.4259 105.161 34.1622 105.163 32.8978C107.478 32.8972 109.795 32.8985 112.11 32.8978C112.111 32.1004 112.111 31.3036 112.11 30.5068C108.916 30.5042 105.723 30.5125 102.53 30.5029C102.516 31.5048 102.528 32.5074 102.523 33.5099C102.527 37.7946 102.517 42.0787 102.528 46.3622C105.723 46.3558 108.916 46.3609 112.11 46.3596C112.111 45.5545 112.112 44.7501 112.109 43.945Z" fill="white"/>
<path fill-rule="evenodd" clip-rule="evenodd" d="M49.6066 54.5812C49.6041 57.8958 49.6085 61.2111 49.6041 64.5264C46.0073 61.129 42.4143 57.7264 38.8206 54.3264C38.8136 59.6086 38.8187 64.8914 38.8181 70.1735C39.6773 70.1755 40.5366 70.1735 41.3958 70.1735C41.3971 66.8009 41.3964 63.4283 41.3964 60.0544C44.9907 63.5086 48.5754 66.9735 52.1735 70.4226C52.1722 65.1423 52.1735 59.8614 52.1729 54.5812C51.3175 54.5806 50.462 54.5806 49.6066 54.5812Z" fill="white"/>
<path fill-rule="evenodd" clip-rule="evenodd" d="M68.1856 62.6418C67.5722 62.1214 66.8391 61.7641 66.0881 61.4889C65.1435 61.1462 64.197 60.808 63.2525 60.4641C62.7792 60.2819 62.2919 60.08 61.9276 59.7144C61.4569 59.2609 61.3588 58.5182 61.5633 57.9176C61.6894 57.5615 61.9588 57.2685 62.2811 57.0794C62.7111 56.8214 63.2098 56.708 63.7047 56.6583C64.7448 56.5749 65.8053 56.7335 66.7716 57.131C67.5034 57.4239 68.1741 57.8501 68.8028 58.3227C68.804 57.4087 68.8053 56.4953 68.8021 55.5806C67.5461 54.7762 66.0582 54.3806 64.576 54.3239C63.4658 54.2736 62.3289 54.4239 61.3123 54.8889C60.6053 55.2112 59.9614 55.6991 59.5225 56.3456C59.0849 56.9806 58.869 57.7558 58.8735 58.5246C58.8595 59.3361 59.0295 60.1673 59.4639 60.8615C59.8926 61.552 60.5531 62.0704 61.2658 62.445C62.0563 62.8698 62.92 63.129 63.7588 63.4392C64.4951 63.7093 65.2531 63.9373 65.9423 64.3208C66.3423 64.5456 66.7225 64.8634 66.8932 65.3036C67.055 65.7239 67.0677 66.201 66.9372 66.6316C66.8053 67.0634 66.4773 67.415 66.0862 67.6297C65.4123 67.9966 64.6238 68.0768 63.869 68.0673C62.1002 68.0532 60.3741 67.3647 59.006 66.2609C59.0015 67.1876 59.0098 68.115 59.0009 69.0424C59.3665 69.3125 59.7792 69.5118 60.1945 69.6934C61.1652 70.0985 62.206 70.3195 63.2531 70.3908C64.2639 70.4526 65.2932 70.3985 66.2684 70.1106C67.0505 69.8825 67.804 69.5074 68.3958 68.9405C68.9595 68.4144 69.355 67.7144 69.5136 66.9603C69.6786 66.18 69.6391 65.3609 69.4397 64.5908C69.2391 63.829 68.7869 63.1462 68.1856 62.6418Z" fill="white"/>
<path fill-rule="evenodd" clip-rule="evenodd" d="M28.5248 70.1738C29.419 70.1744 30.3139 70.1751 31.2088 70.1738V54.5814C30.3139 54.5808 29.419 54.5808 28.5248 54.5808C28.5229 59.7789 28.5235 64.9764 28.5248 70.1738Z" fill="white"/>
<path fill-rule="evenodd" clip-rule="evenodd" d="M76.4951 70.1738C77.3856 70.1738 78.2773 70.1757 79.1678 70.1738C79.1684 64.9764 79.1684 59.7789 79.1678 54.5814C78.2773 54.5808 77.3856 54.5814 76.4958 54.5808C76.4939 59.7789 76.4945 64.9764 76.4951 70.1738Z" fill="white"/>
<path fill-rule="evenodd" clip-rule="evenodd" d="M97.6622 64.3324C97.438 65.1757 97.0144 65.9808 96.3724 66.5795C95.6475 67.2674 94.6737 67.6432 93.6915 67.7579C93.1749 67.8254 92.6552 67.8037 92.1367 67.8069C91.2921 67.8069 90.4475 67.8082 89.603 67.8069C89.6036 64.1795 89.6036 60.5521 89.603 56.9254C90.401 56.9235 91.1991 56.9247 91.9959 56.9241C92.5131 56.9286 93.0316 56.9069 93.5482 56.9604C94.4023 57.0432 95.2565 57.3044 95.9565 57.812C96.566 58.2445 97.0412 58.8528 97.3501 59.5318C97.6717 60.2356 97.8303 61.0044 97.8826 61.7738C97.9386 62.6311 97.8826 63.5005 97.6622 64.3324ZM97.6603 55.9693C96.3533 55.0203 94.7227 54.6025 93.1227 54.5808C91.0622 54.5802 89.0023 54.5802 86.9424 54.5808C86.9412 59.7789 86.9418 64.9763 86.9418 70.1738C89.0036 70.1757 91.0654 70.1738 93.1265 70.1751C94.1807 70.1604 95.2386 69.9776 96.2176 69.5808C97.4705 69.0802 98.573 68.1967 99.3068 67.0623C100.197 65.7146 100.567 64.0821 100.581 62.4821C100.591 61.363 100.435 60.2337 100.051 59.1789C99.5915 57.9069 98.766 56.7572 97.6603 55.9693Z" fill="white"/>
<path fill-rule="evenodd" clip-rule="evenodd" d="M115.713 54.5798C112.538 54.5824 109.362 54.5798 106.187 54.5811C106.186 59.7786 106.186 64.976 106.187 70.1735C109.362 70.1747 112.539 70.1741 115.714 70.1735C115.715 69.3849 115.715 68.5964 115.714 67.8072C113.414 67.8072 111.113 67.8079 108.813 67.8072V62.9792C110.875 62.9741 112.938 62.9862 114.999 62.9728C114.992 62.2053 114.998 61.4378 114.996 60.6703C112.936 60.6703 110.876 60.6684 108.816 60.6709C108.809 59.4225 108.814 58.1735 108.814 56.9244C111.113 56.9244 113.414 56.9251 115.714 56.9244C115.714 56.1429 115.717 55.3614 115.713 54.5798Z" fill="white"/>
<path fill-rule="evenodd" clip-rule="evenodd" d="M126.315 61.6353C126.315 60.0494 126.315 58.464 126.315 56.8774C127.061 56.8767 127.807 56.8774 128.553 56.8774C129.129 56.8812 129.715 56.8443 130.278 56.9959C130.836 57.1334 131.367 57.45 131.681 57.9417C132.016 58.457 132.098 59.1022 132.008 59.7016C131.936 60.1761 131.715 60.6322 131.358 60.9576C130.833 61.4404 130.098 61.6232 129.4 61.6353H126.315ZM132.511 63.329C133.147 63.0392 133.701 62.5666 134.056 61.9634C134.531 61.1595 134.686 60.2067 134.678 59.285C134.694 58.3838 134.501 57.4595 134.021 56.6882C133.619 56.0328 133.01 55.515 132.319 55.185C131.444 54.7557 130.46 54.5997 129.493 54.5806C127.547 54.5806 125.6 54.5812 123.654 54.5806C123.652 59.7787 123.653 64.9761 123.654 70.1736C124.539 70.1755 125.425 70.1716 126.31 70.1761C126.322 68.0678 126.311 65.9589 126.315 63.8506C126.938 63.8494 127.561 63.8506 128.185 63.85C130.01 65.9551 131.826 68.0672 133.65 70.1736C134.661 70.1736 135.673 70.1755 136.685 70.1729C134.809 68.0315 132.928 65.8946 131.05 63.7551C131.552 63.6729 132.049 63.5455 132.511 63.329Z" fill="white"/>
<mask id="mask0_43_877" style="mask-type:luminance" maskUnits="userSpaceOnUse" x="0" y="0" width="164" height="101">
<path fill-rule="evenodd" clip-rule="evenodd" d="M0 100.299H163.134V0.356445H0V100.299Z" fill="white"/>
</mask>
<g mask="url(#mask0_43_877)">
</g>
</svg>
