<svg width="164" height="101" viewBox="0 0 164 101" fill="none" xmlns="http://www.w3.org/2000/svg">
<path fill-rule="evenodd" clip-rule="evenodd" d="M53.5016 58.3077C52.878 58.1663 52.3793 58.1497 51.9914 58.0433H51.9907C51.8512 58.0051 51.7258 57.9554 51.6137 57.8841C51.4436 57.7898 51.3009 57.6299 51.2092 56.7006L47.1411 56.7013C47.064 57.6478 46.9493 57.8083 46.7977 57.8841C46.6735 57.9561 46.5423 58.0057 46.399 58.0433H51.1583L46.399 58.0446C46.0837 58.1287 45.7111 58.1567 45.2417 58.2363C44.7729 58.1567 44.3997 58.1287 44.0844 58.0433H44.0818C43.9391 58.0051 43.8086 57.9554 43.6863 57.8841C43.5729 57.8274 43.4812 57.5172 43.4092 56.7006C43.3251 55.742 43.2704 54.0866 43.2436 51.3268C43.2353 50.5274 43.2296 49.635 43.227 48.6401L39.3137 48.6414C39.3347 49.637 39.3487 50.5287 39.3557 51.3268H40.3124L39.3557 51.3274C39.3818 54.0987 39.3251 55.7446 39.206 56.6994C39.1073 57.4822 38.9665 57.7968 38.7926 57.8841C38.6805 57.9554 38.5901 58.0051 38.5009 58.0433H39.3328H38.5009C38.2544 58.1497 38.0188 58.1663 37.3672 58.3077C37.0595 58.3847 37.1366 58.7701 37.329 58.7319C38.4461 58.6548 39.4869 58.6159 41.2589 58.6159C42.6455 58.6159 43.7926 58.6363 44.7003 58.6758C45.2118 58.6898 45.2321 58.6898 45.7831 58.6758C46.6914 58.6363 47.8379 58.6159 49.2239 58.6159C50.9965 58.6159 52.4226 58.6548 53.5398 58.7319C53.7321 58.7701 53.8092 58.3847 53.5016 58.3077Z" fill="white"/>
<path fill-rule="evenodd" clip-rule="evenodd" d="M120.352 59.0782C121.637 59.0782 122.93 58.6916 124.032 58.0438L115.87 58.0432C117.095 58.7044 118.591 59.0782 120.352 59.0782Z" fill="white"/>
<path fill-rule="evenodd" clip-rule="evenodd" d="M60.8868 59.0782C62.1129 59.0782 63.2148 58.6674 64.1645 58.0432L57.0543 58.0438C58.1288 58.7114 59.4199 59.0782 60.8868 59.0782Z" fill="white"/>
<path fill-rule="evenodd" clip-rule="evenodd" d="M104.415 59.0782C105.7 59.0782 106.993 58.6916 108.095 58.0438L99.9324 58.0432C101.158 58.7044 102.654 59.0782 104.415 59.0782Z" fill="white"/>
<path fill-rule="evenodd" clip-rule="evenodd" d="M146.733 58.3076C146.025 58.1662 145.712 58.1496 145.321 58.0433H144.395H145.321C145.18 58.0051 145.028 57.9554 144.845 57.884C144.644 57.8172 144.189 57.3898 143.546 56.6993H143.545C142.442 55.5133 140.786 53.5567 138.917 51.3267C138.193 50.463 137.437 49.5579 136.668 48.6407L135.298 48.6401H136.668C136.581 48.5369 136.494 48.4331 136.407 48.3286C139.698 45.1401 141.342 43.7516 142.288 43.2675L138.945 43.2668C139.102 43.4395 139.142 43.6089 139.142 43.7433C139.142 44.0904 137.832 45.67 135.096 48.4439C135.029 48.5121 134.96 48.577 134.89 48.6401C134.326 49.149 133.706 49.484 133.054 49.484V48.6401H129.231C129.227 49.6407 129.22 50.5325 129.211 51.3267C129.181 54.2076 129.126 55.8044 129.052 56.7L133.209 56.7006C133.124 55.6764 133.086 53.9439 133.062 51.3267C133.059 51.0318 133.057 50.7261 133.054 50.4095C133.581 50.507 133.938 50.7178 134.533 51.3274H134.533C134.637 51.4331 134.747 51.5503 134.865 51.6809C136.926 54.0503 138.212 55.7312 138.849 56.7006C139.165 57.1809 139.322 57.4866 139.335 57.614C139.335 57.7961 139.292 57.935 139.104 58.0433H139.103C138.893 58.1643 138.503 58.2465 137.794 58.3076C137.524 58.3465 137.601 58.77 137.794 58.7318C138.757 58.6547 140.452 58.6159 142.379 58.6159C144.267 58.6159 145.77 58.6547 146.733 58.7318C146.926 58.77 147.08 58.3847 146.733 58.3076Z" fill="white"/>
<path fill-rule="evenodd" clip-rule="evenodd" d="M24.4982 58.3076C23.8473 58.1662 23.5498 58.1496 23.2536 58.0432C23.1473 58.005 23.0409 57.9553 22.9186 57.884C22.767 57.7897 22.6995 57.6305 22.6562 56.7005C22.6148 55.8133 22.5957 54.226 22.5473 51.3267L18.6409 51.3273C18.6339 54.2126 18.5855 55.8076 18.5084 56.7005H21.7511L18.5084 56.7012C18.4269 57.6477 18.3122 57.8082 18.1798 57.884C18.0575 57.9553 17.9269 58.005 17.7842 58.0432H20.5192H17.7842C17.3893 58.1496 16.9046 58.1662 16.2536 58.3076C15.9441 58.3846 16.0218 58.77 16.2142 58.7318C17.1778 58.6547 18.6798 58.6158 20.6071 58.6158C22.3791 58.6158 23.4199 58.6547 24.5371 58.7318C24.7294 58.77 24.8065 58.3846 24.4982 58.3076Z" fill="white"/>
<path fill-rule="evenodd" clip-rule="evenodd" d="M135.174 58.3077C134.523 58.1663 134.162 58.1497 133.834 58.0434H131.089H133.834C133.715 58.0051 133.601 57.9555 133.479 57.8841C133.356 57.823 133.271 57.4516 133.208 56.7013L129.053 56.7007C128.971 57.6892 128.864 57.8211 128.739 57.8841C128.617 57.9555 128.487 58.0051 128.344 58.0434C127.949 58.1497 127.464 58.1663 126.813 58.3077C126.543 58.3848 126.582 58.7701 126.774 58.7319C127.776 58.6548 129.125 58.616 131.051 58.616C132.824 58.616 134.095 58.6548 135.213 58.7319C135.367 58.7701 135.444 58.3848 135.174 58.3077Z" fill="white"/>
<path fill-rule="evenodd" clip-rule="evenodd" d="M28.4674 57.8841C28.3451 57.9555 28.2463 58.0051 28.1521 58.0434H30.9113H28.1521C27.8896 58.1497 27.6546 58.1663 27.003 58.3077C26.6947 58.3848 26.7718 58.7701 26.9648 58.7319C28.082 58.6548 29.1221 58.616 30.8947 58.616C32.8209 58.616 34.054 58.6548 35.017 58.7319C35.2094 58.7701 35.2871 58.3848 34.9788 58.3077C34.3272 58.1663 33.9884 58.1497 33.6705 58.0434H33.6699C33.5559 58.0051 33.4438 57.9555 33.3215 57.8841C33.2126 57.8217 33.117 57.5714 33.0406 56.7007H28.8642C28.7667 57.4873 28.6279 57.7962 28.4674 57.8841Z" fill="white"/>
<path fill-rule="evenodd" clip-rule="evenodd" d="M65.8181 55.8414C65.4837 56.1598 65.0964 56.4592 64.6767 56.7H64.9142L64.6767 56.7006C64.0798 57.042 63.4149 57.2668 62.7359 57.2668C61.9525 57.2668 61.2556 57.0656 60.6525 56.7012C59.0996 55.763 58.1671 53.7484 57.9626 51.3267L55.4964 51.3261H57.9626C57.934 50.9891 57.92 50.6446 57.92 50.2936C57.92 49.7095 57.9353 49.1579 57.9684 48.6401C58.1518 45.7522 58.876 43.9095 60.4747 43.2668L57.8964 43.2681C55.8314 44.3987 54.3034 46.2974 53.7518 48.6401C53.6047 49.2643 53.527 49.921 53.527 50.6019C53.527 50.8471 53.534 51.0885 53.5474 51.3267C53.6716 53.5051 54.3588 55.3541 55.5002 56.7006C55.9499 57.2299 56.4703 57.6815 57.0544 58.0439L64.1639 58.0433C64.7467 57.6605 65.2728 57.1981 65.734 56.7006H65.7346C65.8435 56.5815 65.948 56.463 66.0493 56.3426C66.0881 56.3044 66.3582 56.3815 66.3582 56.4968C66.3633 56.5637 66.3709 56.6312 66.3786 56.7C66.4289 57.1369 66.5136 57.6108 66.6091 58.0433H69.0423H66.6091C66.6894 58.407 66.7773 58.742 66.8588 59.0012C66.8964 59.1942 67.0894 59.2713 67.206 59.1942C68.1391 58.7942 70.0531 58.3936 71.476 58.0433H71.4767C71.697 57.9891 71.9072 57.9356 72.0983 57.884C72.2913 57.8452 72.4072 57.5369 72.0601 57.5369C71.0582 57.5369 70.827 57.3063 70.4798 56.9203C70.4391 56.8656 70.4002 56.8 70.3646 56.7006C70.206 56.2547 70.1085 55.1382 70.1308 51.3274L66.3085 51.3267L66.2416 54.8783C66.2416 55.3025 66.1263 55.4955 65.8181 55.8414Z" fill="white"/>
<path fill-rule="evenodd" clip-rule="evenodd" d="M47.2585 51.3273C47.2527 54.2126 47.2132 55.8076 47.1406 56.7005L51.2094 56.6993C51.1215 55.812 51.0801 54.2254 51.1043 51.3267L47.2585 51.3273Z" fill="white"/>
<path fill-rule="evenodd" clip-rule="evenodd" d="M118.162 43.2671H118.162C118.682 42.8531 119.346 42.6263 120.197 42.6263C120.881 42.6263 121.41 42.8696 121.815 43.2677H121.816C122.806 44.2403 123.055 46.1314 122.972 47.6346C122.972 47.7123 120.698 47.6735 120.43 47.6735C117.963 47.7123 117.347 47.7505 116.383 47.7505C116.641 45.7123 117.107 44.106 118.162 43.2671ZM126.324 54.9945C125.64 55.8563 124.268 56.4665 122.862 56.7002H122.855C122.442 56.7696 122.025 56.8053 121.624 56.8053C121.209 56.8053 120.818 56.7696 120.452 56.6996H120.45C117.926 56.2181 116.545 54.1474 116.251 51.3276H113.467L116.251 51.327C116.211 50.9448 116.191 50.548 116.191 50.1397C116.191 49.3996 116.191 49.1754 116.279 48.6416L113.685 48.641L116.279 48.6403C116.288 48.5913 116.296 48.5384 116.306 48.4824C117.27 48.4435 117.771 48.4435 120.43 48.4435C123.858 48.4435 126.826 48.6365 127.094 48.0206C127.445 47.2467 126.953 44.8537 124.99 43.2665H124.989C123.923 42.4034 122.424 41.7786 120.39 41.7786C118.489 41.7786 116.785 42.32 115.405 43.2671H115.404C113.631 44.4856 112.394 46.3722 111.965 48.6403C111.855 49.22 111.798 49.8238 111.798 50.4474C111.798 50.7448 111.809 51.0384 111.832 51.3276C111.995 53.4461 112.755 55.3238 114.09 56.7002C114.599 57.2263 115.194 57.6779 115.869 58.0435H124.032C124.663 57.6735 125.232 57.2181 125.7 56.7002H125.701C126.108 56.2493 126.439 55.7531 126.671 55.2257C126.787 54.9556 126.402 54.8397 126.324 54.9945Z" fill="white"/>
<path fill-rule="evenodd" clip-rule="evenodd" d="M66.3187 50.7561L66.3079 51.3268H70.1302C70.1308 51.1917 70.1321 51.0522 70.1327 50.9102L70.1518 48.6401H66.2869C66.3149 49.2535 66.3264 49.9535 66.3187 50.7561Z" fill="white"/>
<path fill-rule="evenodd" clip-rule="evenodd" d="M107.035 47.6349C107.035 47.7119 104.762 47.6737 104.493 47.6737C102.026 47.7119 101.41 47.7508 100.447 47.7508C100.705 45.7126 101.17 44.1056 102.224 43.2673H102.226C102.746 42.8533 103.409 42.6266 104.261 42.6266C104.943 42.6266 105.473 42.8699 105.879 43.268C106.87 44.24 107.117 46.1317 107.035 47.6349ZM109.053 43.2661H109.052C107.986 42.4036 106.487 41.7788 104.454 41.7788C102.552 41.7788 100.847 42.3202 99.4683 43.2673H99.4671C97.6944 44.4852 96.4581 46.3724 96.0282 48.6406C95.9187 49.2202 95.8613 49.824 95.8613 50.4476C95.8613 50.7451 95.8728 51.038 95.8951 51.3272C96.0581 53.4463 96.818 55.324 98.153 56.7005C98.6626 57.2259 99.2562 57.6782 99.9327 58.0431H108.096C108.726 57.6731 109.295 57.2177 109.763 56.7005H109.764C110.172 56.2495 110.502 55.7533 110.734 55.2253C110.85 54.9559 110.465 54.84 110.388 54.9941C109.703 55.8565 108.33 56.4667 106.924 56.7005H106.918C106.505 56.7693 106.089 56.8056 105.687 56.8056C105.272 56.8056 104.882 56.7693 104.515 56.6998H104.512C101.989 56.2183 100.608 54.147 100.314 51.3272H97.5301L100.314 51.3266C100.274 50.9444 100.254 50.5482 100.254 50.1393C100.254 49.3998 100.254 49.175 100.342 48.6412L97.7486 48.6406H100.342C100.351 48.5909 100.36 48.5387 100.37 48.4826C101.333 48.4438 101.834 48.4438 104.493 48.4438C107.922 48.4438 110.889 48.6368 111.158 48.0202C111.507 47.2463 111.015 44.854 109.053 43.2661Z" fill="white"/>
<path fill-rule="evenodd" clip-rule="evenodd" d="M33.2451 46.0171C34.1693 44.9763 34.9018 44.4757 36.4814 44.4757C38.5623 44.4757 39.2171 45.7859 39.2941 47.789C39.3011 48.0814 39.3075 48.3655 39.3132 48.6406L43.2272 48.64C43.2253 48.0126 43.2241 47.3445 43.2241 46.633C43.2241 45.2712 42.8903 44.096 42.133 43.2674L35.1718 43.268C34.3769 43.8667 33.6317 44.633 32.9368 45.4776C32.8979 45.5158 32.6285 45.4776 32.5897 45.3234C32.4024 44.5738 32.012 43.8553 31.461 43.2674H24.61C23.8871 43.8604 23.1909 44.596 22.4954 45.4005C22.4565 45.4776 22.1483 45.4005 22.1483 45.2852C22.1648 44.6738 22.2024 43.9413 22.2464 43.2674C22.3043 42.3718 22.3737 41.5801 22.4177 41.3158C22.4177 41.1617 22.2253 40.9311 21.9941 41.1234C21.1464 41.7859 19.789 42.6298 18.4228 43.2674H21.1336L18.4228 43.268C17.8018 43.5585 17.1782 43.8062 16.5999 43.9744C16.4457 44.0132 16.3298 44.2833 16.6387 44.3215C17.5635 44.3986 17.833 44.5527 18.1801 44.8617C18.5049 45.154 18.61 45.6935 18.6355 48.6406C18.64 49.1827 18.6419 49.8062 18.6419 50.5247C18.6419 50.8031 18.6413 51.0706 18.6406 51.3266L22.547 51.326C22.5425 51.0693 22.5381 50.8024 22.5336 50.5247L22.4948 48.6406L22.4565 46.7871C22.4565 46.3247 22.5718 46.1324 22.8807 45.7859C23.7285 44.7839 24.6527 44.3604 26.1171 44.3604C28.1202 44.3604 28.8527 45.4394 28.9298 47.8661C28.9368 48.1304 28.9438 48.3884 28.9508 48.6406C28.9769 49.6368 28.9941 50.5285 29.0043 51.3266C29.0387 54.1107 28.9814 55.7521 28.8642 56.7005L33.0406 56.6999C32.9604 55.7769 32.9018 54.1578 32.8757 51.3266C32.868 50.5311 32.8629 49.6394 32.861 48.6406C32.8604 48.233 32.8597 47.8088 32.8597 47.3648V47.019C32.8597 46.5948 32.9368 46.3636 33.2451 46.0171Z" fill="white"/>
<path fill-rule="evenodd" clip-rule="evenodd" d="M133.103 43.2669L133.209 31.7223C133.209 31.2981 133.247 29.4484 133.401 28.9478C133.439 28.7937 133.247 28.5242 133.016 28.6784C131.474 29.6414 128.894 30.8357 126.89 31.3752C126.697 31.4141 126.62 31.6828 126.929 31.7223C127.853 31.8376 128.392 31.9918 128.739 32.223C129.111 32.4459 129.232 33.5663 129.24 43.2676C129.241 43.6204 129.241 43.9841 129.241 44.3599C129.241 45.9727 129.238 47.3911 129.231 48.6395L133.055 48.6402V48.4822L133.103 43.2669Z" fill="white"/>
<path fill-rule="evenodd" clip-rule="evenodd" d="M45.2947 44.0514C46.1807 44.2062 46.4501 44.4368 46.7972 44.7839C47.1227 45.1094 47.2278 45.6826 47.2527 48.6406C47.2578 49.1833 47.2597 49.8075 47.2597 50.5247C47.2597 50.803 47.259 51.0705 47.2584 51.3266L51.1043 51.3259C51.1068 51.0692 51.1094 50.8024 51.1125 50.5247L51.1374 48.6406L51.1896 44.668C51.1896 44.1852 51.1947 43.7075 51.2017 43.2673H46.7221C46.1979 43.4629 45.6851 43.617 45.2176 43.7056C45.0629 43.7438 44.9864 43.9743 45.2947 44.0514Z" fill="white"/>
<path fill-rule="evenodd" clip-rule="evenodd" d="M48.9546 37.2704C50.5731 37.2704 51.4591 36.2303 51.4591 34.8424C51.4591 33.4558 50.4572 32.4539 49.1476 32.4539C47.6444 32.4539 46.5272 33.4558 46.5272 35.0742C46.5272 36.3456 47.5673 37.2704 48.9546 37.2704Z" fill="white"/>
<path fill-rule="evenodd" clip-rule="evenodd" d="M137.062 42.5487C138.169 42.7136 138.701 42.9945 138.946 43.2665L142.289 43.2671C142.406 43.2073 142.513 43.1614 142.61 43.127C143.381 42.8576 143.882 42.7417 144.806 42.6264C145.115 42.5875 144.96 42.2028 144.806 42.2028C143.804 42.2799 143.612 42.2799 141.686 42.2799C139.759 42.2799 138.063 42.241 137.062 42.1257C136.869 42.1257 136.792 42.5104 137.062 42.5487Z" fill="white"/>
<path fill-rule="evenodd" clip-rule="evenodd" d="M28.1203 41.8169C26.8292 41.8169 25.6891 42.3831 24.6101 43.2672L31.4611 43.2666C30.6521 42.4029 29.4948 41.8169 28.1203 41.8169Z" fill="white"/>
<path fill-rule="evenodd" clip-rule="evenodd" d="M50.8424 41.1237C49.922 41.7568 48.2698 42.6906 46.722 43.267H51.2017C51.2163 42.4409 51.2412 41.7454 51.2666 41.3931C51.2666 41.239 51.0736 40.9696 50.8424 41.1237Z" fill="white"/>
<path fill-rule="evenodd" clip-rule="evenodd" d="M98.0639 42.5487C98.3721 42.4716 98.2568 42.0869 98.0639 42.1258C97.0619 42.2411 96.9467 42.2799 95.0199 42.2799C93.132 42.2799 91.8225 42.2411 90.8205 42.1258C90.6275 42.0869 90.5505 42.5105 90.8205 42.5487C92.2225 42.736 93.0702 42.9481 93.3428 43.2672H93.3435C93.4072 43.3423 93.4396 43.4239 93.4396 43.5124C93.4396 44.0321 92.932 45.6907 91.8568 48.6404H92.8358L91.8568 48.6411C91.5658 49.4404 91.2326 50.334 90.8581 51.3264H90.8575C90.5632 52.1028 90.2428 52.9404 89.8957 53.8385C89.6218 52.9455 89.3543 52.1086 89.097 51.327C88.7721 50.343 88.4645 49.4481 88.1798 48.6404C87.1518 45.7169 86.4416 43.9468 86.4301 43.2672C86.4288 43.1742 86.4403 43.1016 86.4664 43.05C86.6594 42.6646 87.9307 42.7805 88.7396 42.5487C89.0091 42.4716 88.932 42.0869 88.7396 42.1258C87.7377 42.2411 85.7346 42.2799 83.8078 42.2799C81.8428 42.2799 81.111 42.2411 80.0702 42.1258C79.9167 42.1258 79.7626 42.4716 80.0702 42.5487C81.0721 42.7417 81.2651 42.7417 81.8046 43.0118C81.8747 43.05 81.9568 43.136 82.0492 43.2672H82.0498C82.5161 43.9226 83.2556 45.6939 84.1543 48.136C84.0772 48.306 83.9995 48.4729 83.9231 48.6398H83.9225C83.5225 49.5047 83.1263 50.3417 82.6626 51.327C82.2435 52.2181 81.7696 53.2302 81.1881 54.4933C80.7632 53.3755 80.3486 52.3162 79.9537 51.327H79.953C79.5683 50.3614 79.2027 49.4633 78.8664 48.6404C77.7358 45.8697 76.9454 43.9608 76.8906 43.2672H73.3842L76.8906 43.2665C76.883 43.171 76.89 43.0984 76.911 43.05C77.104 42.6646 77.797 42.7805 78.5677 42.5487C78.876 42.4716 78.7989 42.0869 78.5677 42.1258C77.6046 42.2411 75.9473 42.2799 73.9823 42.2799C72.0785 42.2799 71.2282 42.2417 70.204 42.1296L70.2881 31.7219C70.2881 31.2984 70.3256 29.4487 70.4798 28.9481C70.5193 28.7939 70.3256 28.5239 70.0951 28.6786C68.5543 29.6417 65.9721 30.836 63.9689 31.3755C63.776 31.4143 63.6989 31.6831 64.0072 31.7219C64.932 31.8379 65.4715 31.992 65.818 32.2232C66.204 32.4544 66.3186 33.1863 66.3186 42.7035C66.3186 42.8576 66.1263 42.8958 65.9721 42.8576C64.8167 42.3563 64.1231 42.1258 62.4658 42.1258C60.797 42.1258 59.2339 42.5353 57.897 43.2672L60.4747 43.2665C60.8957 43.0977 61.3779 43.0118 61.9269 43.0118C62.483 43.0118 63.0078 43.0977 63.4906 43.2672C64.0785 43.4723 64.6033 43.8003 65.0479 44.2442C65.7078 44.9041 66.1626 45.9232 66.2868 48.6398L70.1517 48.6404L70.1951 43.2672L70.2008 42.5551C71.1817 42.7423 71.7161 42.7831 72.2874 43.0118C72.3619 43.0391 72.4517 43.1258 72.5562 43.2672C73.067 43.9621 73.9174 45.9691 74.9619 48.6404H77.7053L74.9619 48.6411C75.2893 49.478 75.6358 50.3799 75.997 51.327L76.7728 51.3277H75.997C76.6384 53.0118 77.3269 54.8391 78.0377 56.7003H78.0384C78.2084 57.1468 78.3804 57.5958 78.553 58.0436L79.3753 58.0442L78.553 58.0449C78.6855 58.3895 78.8193 58.7341 78.9524 59.0786C79.0301 59.3098 79.9543 59.3869 80.1097 59.0398C80.239 58.7156 80.3753 58.3837 80.5161 58.0449H80.5167C80.7008 57.6035 80.8938 57.1532 81.0925 56.7003L79.5645 56.6997L81.0925 56.699C81.9027 54.843 82.8027 52.9258 83.576 51.3283H83.5766C83.9314 50.5952 84.2594 49.9296 84.5396 49.3691C84.7568 49.9774 84.9823 50.6353 85.2142 51.327L87.3225 51.3277L85.2142 51.3283C85.7702 52.9876 86.3632 54.8455 86.976 56.7003H87.3377H86.976C87.1237 57.1487 87.2734 57.5971 87.4237 58.0436C87.5409 58.3907 87.6581 58.7366 87.7766 59.0786C87.8537 59.3098 88.8167 59.3869 88.932 59.0398C89.0537 58.7073 89.1753 58.3755 89.2963 58.0449H89.297C89.4626 57.5939 89.6282 57.1455 89.7938 56.7009H89.7944C90.5002 54.8047 91.1963 52.9856 91.8575 51.3277C92.2384 50.3735 92.6072 49.4723 92.9588 48.6404H92.9594C94.1014 45.9449 95.0734 43.9742 95.7129 43.2672H93.8804L95.7129 43.2665C95.8263 43.1404 95.9295 43.0544 96.0218 43.0118C96.5995 42.7417 97.1008 42.7805 98.0639 42.5487Z" fill="white"/>
<path fill-rule="evenodd" clip-rule="evenodd" d="M38.6005 41.9707C37.37 41.9707 36.2267 42.472 35.1719 43.2669L42.133 43.2662C41.3903 42.4522 40.2407 41.9707 38.6005 41.9707Z" fill="white"/>
<mask id="mask0_43_829" style="mask-type:luminance" maskUnits="userSpaceOnUse" x="0" y="0" width="164" height="101">
<path fill-rule="evenodd" clip-rule="evenodd" d="M0 100.299H163.134V0.356445H0V100.299Z" fill="white"/>
</mask>
<g mask="url(#mask0_43_829)">
</g>
</svg>
